# xmcd
#
# Track frame offsets: 
#        150
#        27371
#        44348
#        62321
#        81969
#        91707
#        101921
#        122389
#        142951
#        171308
#
# Disc length: 2465 seconds
#
# Revision: 0
# Processed by: cddbd v1.5.2PL0 Copyright (c) Steve Scherf et al.
# Submitted via: ExactAudioCopyFreeDBPlugin 1.0
#
DISCID=78099f0a
DTITLE=Parr, Charlie - Barnswallow
DYEAR=2013
DGENRE=Country Blues
TTITLE0=Jimmy Bell
TTITLE1=Nowhere ... Fast
TTITLE2=My Wife Left Me
TTITLE3=Motorcycle Blues
TTITLE4=Badger
TTITLE5=Groundhog Day Blues
TTITLE6=Henry Goes to the Bank
TTITLE7=True Friends
TTITLE8=Jesus Is a Hobo
TTITLE9=Rattlesnake
EXTD=
EXTT0=
EXTT1=
EXTT2=
EXTT3=
EXTT4=
EXTT5=
EXTT6=
EXTT7=
EXTT8=
EXTT9=
PLAYORDER=
